<?xml version="1.0" encoding="UTF-8" standalone="yes"?>
<svg version="1.2" width="500" height="500" baseProfile="tiny-ps" xmlns="http://www.w3.org/2000/svg">
  <title>bimi-svg-tiny-12-ps</title>
  <path d="M0 0 C165 0 330 0 500 0 C500 165 500 330 500 500 C335 500 170 500 0 500 C0 335 0 170 0 0 Z " fill="#FEFEFE" transform="translate(0,0)"/>
  <path d="M0 0 C3.0625 0.625 3.0625 0.625 4.98046875 3.05859375 C7.5927156 7.25558298 9.47742362 11.78588902 11.4375 16.3125 C21.88991002 39.86600025 35.42862832 55.38516882 55.6484375 70.96875 C59.92621233 74.27309555 64.05384751 77.74446942 68.19140625 81.22265625 C71.00085306 83.57341787 73.83996572 85.88311392 76.6875 88.1875 C98.60744352 106.13346815 98.60744352 106.13346815 102.0625 114.625 C102.29222511 125.88153038 92.40434089 134.79331001 85.125 142.38671875 C84.65530792 142.87544464 84.18561584 143.36417053 83.70169067 143.8677063 C82.03338151 145.65621646 80.45343694 147.50052164 78.86987305 149.36425781 C75.20092015 153.57021643 71.21176794 157.29024212 67.08203125 161.03515625 C64.79135373 163.18103984 62.50925418 165.33578908 60.2277832 167.49145508 C58.66969347 168.94574761 57.0958195 170.38332593 55.50610352 171.80297852 C43.14420095 182.8871717 38.75203147 191.51994675 37.32601929 208.05075073 C36.96681834 211.5596885 36.21429738 214.82769019 35.359375 218.25 C35.1008374 219.31806885 34.8422998 220.3861377 34.57592773 221.48657227 C34.32399658 222.52225342 34.07206543 223.55793457 33.8125 224.625 C30.76209123 237.83654865 27.9064843 252.05606983 35.15234375 264.49609375 C36.09329547 265.89245271 37.07415947 267.26177168 38.0625 268.625 C38.0625 269.285 38.0625 269.945 38.0625 270.625 C38.8359375 270.99625 38.8359375 270.99625 39.625 271.375 C41.54266115 272.35841597 43.40840485 273.44309902 45.25 274.5625 C55.61588923 280.49852204 66.43010044 280.77500436 78.0859375 280.65234375 C80.42968603 280.63969781 82.7734361 280.62733683 85.1171875 280.61523438 C88.77934713 280.59045026 92.44142418 280.5624642 96.10351562 280.52905273 C99.6601613 280.49868063 103.2167028 280.48102596 106.7734375 280.46484375 C107.85603851 280.45138412 108.93863953 280.4379245 110.05404663 280.42405701 C120.01251937 280.39153262 129.128156 281.10082849 137.0625 287.625 C140.95552082 291.56042846 143.79139105 294.65946011 144.5625 300.25 C144.46014076 304.95852499 142.58367551 307.46120423 139.33984375 310.75 C123.60452624 323.70532145 99.08573503 326.01793338 79.76953125 329.14770508 C77.49612288 329.54854503 75.29084741 330.02769387 73.0625 330.625 C73.92875 331.24375 74.795 331.8625 75.6875 332.5 C79.9145115 336.02250959 82.85393 340.61264256 85.0625 345.625 C85.2890625 348.375 85.2890625 348.375 85.0625 350.625 C84.7325 350.955 84.4025 351.285 84.0625 351.625 C76.41708627 351.3680113 70.07300656 348.37340734 63.125 345.375 C58.46918403 343.3676697 53.7911801 341.45442574 49.0625 339.625 C47.88155762 339.14562988 46.70061523 338.66625977 45.48388672 338.17236328 C32.50165911 333.36304068 18.8773739 333.86003233 5.22460938 333.97314453 C1.75824712 334.00163406 -1.70619707 333.9846889 -5.17249393 333.95597076 C-19.74059629 333.85306603 -33.30502685 334.04253508 -46.9375 339.625 C-48.12230957 340.09534668 -49.30711914 340.56569336 -50.52783203 341.05029297 C-53.88121276 342.43375683 -57.19273862 343.88502553 -60.5 345.375 C-73.85530978 351.3892077 -73.85530978 351.3892077 -80.9375 351.625 C-81.2675 351.295 -81.5975 350.965 -81.9375 350.625 C-81.77457268 342.80448867 -77.44613839 336.99228386 -72.0625 331.5625 C-71.36125 330.923125 -70.66 330.28375 -69.9375 329.625 C-70.71609375 329.59921875 -71.4946875 329.5734375 -72.296875 329.546875 C-83.10068912 328.99921622 -93.40573591 327.00687575 -103.9375 324.625 C-105.18732666 324.3463208 -105.18732666 324.3463208 -106.46240234 324.06201172 C-119.52019946 321.09048475 -134.21561704 317.58965287 -142.9375 306.625 C-144.14393566 303.00569302 -144.26018559 300.43268995 -143.9375 296.625 C-139.80526372 288.52581689 -133.40885995 284.35074572 -125.04190063 281.43435669 C-119.7272446 280.04875834 -114.56332811 280.19392894 -109.10546875 280.33984375 C-107.31415276 280.35900597 -107.31415276 280.35900597 -105.48664856 280.3785553 C-101.69886691 280.42046604 -97.91228662 280.48878917 -94.125 280.5625 C-67.06023614 281.49835347 -67.06023614 281.49835347 -41.9375 272.625 C-41.22851562 272.32722656 -40.51953125 272.02945312 -39.7890625 271.72265625 C-37.4372485 270.3284374 -36.96120152 269.13193127 -35.9375 266.625 C-35.42509766 265.54412109 -35.42509766 265.54412109 -34.90234375 264.44140625 C-34.56332031 263.69761719 -34.22429687 262.95382812 -33.875 262.1875 C-33.36259766 261.07568359 -33.36259766 261.07568359 -32.83984375 259.94140625 C-27.88070508 247.21080351 -31.75482105 233.08780807 -34.52734375 220.3203125 C-35.50221443 215.82892045 -36.33829707 211.342519 -37.06640625 206.8046875 C-37.25501221 205.69585205 -37.44361816 204.5870166 -37.63793945 203.44458008 C-37.99270463 201.34199356 -38.32253385 199.23497623 -38.62182617 197.1237793 C-39.95756726 189.57385637 -42.94768035 185.40010787 -48.40454102 180.11410522 C-50.14533297 178.42311256 -51.85120374 176.70051264 -53.55664062 174.97387695 C-57.70042133 170.79073584 -61.87919483 166.6435633 -66.0625 162.5 C-68.9014384 159.68789829 -71.73687177 156.87232735 -74.5703125 154.0546875 C-75.52371017 153.11373734 -75.52371017 153.11373734 -76.49636841 152.15377808 C-82.85949846 145.82504389 -88.7150048 139.1107581 -94.1875 132 C-94.60773438 131.46632812 -95.02796875 130.93265625 -95.4609375 130.3828125 C-98.70680813 126.17747068 -101.40124419 122.03815115 -102.5625 116.8125 C-99.94951015 103.48625179 -82.16240304 92.00646705 -71.84375 84.10351562 C-66.39473965 79.8771828 -61.09009595 75.46459286 -55.75048828 71.1015625 C-54.14004645 69.78996107 -52.52174513 68.48802311 -50.90234375 67.1875 C-30.80938413 50.99748937 -18.08855085 33.66392705 -8.23193359 9.80175781 C-4.54256183 0.96650252 -4.54256183 0.96650252 0 0 Z " fill="#4A8537" transform="translate(258.9375,104.375)"/>
  <path d="M0 0 C0.66 0 1.32 0 2 0 C2.4021875 1.07314453 2.4021875 1.07314453 2.8125 2.16796875 C9.31240781 18.69569485 19.39653634 31.63100036 31.92504883 43.95751953 C35.58143965 47.55618566 39.04716317 51.22700132 42.36328125 55.14453125 C44.31900088 57.36163584 46.3955589 59.42375912 48.5 61.5 C52.54778144 65.50682581 56.3229998 69.65307016 60 74 C60.81855469 74.95261719 61.63710938 75.90523438 62.48046875 76.88671875 C74.584949 91.07106058 74.584949 91.07106058 75.34375 96.42578125 C74.6169994 101.8681522 69.89595062 105.46585367 66 109 C52.37726726 119.35534636 37.5170942 126.96796984 20 125 C17.10901312 124.01097817 16.14705599 123.27335341 14 121 C14 116.6497313 14.30562005 116.22051731 16.8125 113 C20.063925 108.40526326 21.21959325 104.0886723 22.26171875 98.6015625 C23.05948649 95.79038093 23.88288642 94.91042967 26 93 C29.31879355 83.04361935 26.54784875 71.55948134 23 62 C19.48890764 56.11065269 15.67261274 52.78174183 10 49 C-1.97894868 47.6262024 -1.97894868 47.6262024 -12.875 51.625 C-18.99127605 57.56056789 -21.60402722 63.91465342 -22.5 72.3125 C-23 76 -23 76 -25 78 C-25.35880863 80.72555346 -25.35880863 80.72555346 -25.3125 83.8125 C-25.32925781 84.85019531 -25.34601563 85.88789063 -25.36328125 86.95703125 C-24.95327861 90.39135445 -23.88778354 92.1425609 -22 95 C-21.15625 97.17578125 -21.15625 97.17578125 -20.5 99.3125 C-20.24992187 100.08851563 -19.99984375 100.86453125 -19.7421875 101.6640625 C-19.26734305 103.15857291 -18.79330682 104.65334051 -18.3203125 106.1484375 C-16.65930257 111.01948908 -14.49914906 114.21713615 -11 118 C-12.47189836 121.88045931 -14.31366382 123.1872138 -18 125 C-34.08185559 127.52686891 -48.00401712 120.60172023 -60.765625 111.46484375 C-66.36192672 107.29015722 -72.26217899 102.87913895 -73.36328125 95.59765625 C-72.86706513 92.04944421 -71.37923742 90.25873818 -69.1875 87.4375 C-68.78805176 86.92155273 -68.38860352 86.40560547 -67.97705078 85.87402344 C-64.08677559 80.93527346 -59.85490766 76.31955663 -55.5546875 71.73828125 C-53.47723515 69.51153186 -51.47331801 67.25544053 -49.5 64.9375 C-46.20316415 61.12553355 -42.63377147 57.60540735 -39.04907227 54.06835938 C-35.79474227 50.84144251 -32.76316486 47.5004557 -29.80078125 44.0078125 C-27.68572376 41.64959222 -25.41522286 39.50070064 -23.125 37.3125 C-12.91888192 27.15277337 -4.57769292 13.73307875 0 0 Z " fill="#FDFDFC" transform="translate(258,126)"/>
  <path d="M0 0 C0.66 0 1.32 0 2 0 C4.66988481 9.80546979 5.34511236 19.50974266 5.421875 29.63986206 C5.437145 31.64097735 5.47031311 33.64193069 5.50390625 35.64282227 C5.47707022 48.93252857 2.60439893 60.84720692 -6.625 70.7421875 C-11.47744745 75.25765943 -17.3801753 78.70450411 -24.0625 79.25 C-24.701875 79.1675 -25.34125 79.085 -26 79 C-25.13375 78.01 -24.2675 77.02 -23.375 76 C-12.12780833 62.79447379 -3.02846837 46.97333514 -4 29 C-4.07476562 29.53625 -4.14953125 30.0725 -4.2265625 30.625 C-7.0548065 47.48355247 -14.98534 64.65772293 -28.23828125 75.8984375 C-28.92277344 76.38570313 -29.60726563 76.87296875 -30.3125 77.375 C-31.35857422 78.12910156 -31.35857422 78.12910156 -32.42578125 78.8984375 C-32.94527344 79.26195313 -33.46476562 79.62546875 -34 80 C-34.98558449 78.42065361 -35.96322541 76.83634827 -36.9375 75.25 C-37.48277344 74.36828125 -38.02804687 73.4865625 -38.58984375 72.578125 C-42.14122818 66.0852892 -42.22110954 57.52857193 -40.31640625 50.46484375 C-39.35095263 48.19342383 -38.26267621 46.12019463 -37 44 C-36.57589844 43.27425781 -36.15179688 42.54851562 -35.71484375 41.80078125 C-30.78130519 33.92635897 -24.4105434 27.35134905 -17.81640625 20.8671875 C-17.06657471 20.12791016 -16.31674316 19.38863281 -15.54418945 18.62695312 C-14.04650516 17.1568414 -12.54142297 15.69421794 -11.02807617 14.24023438 C-6.96484458 10.26379025 -3.7432979 6.45053211 -0.99902344 1.45556641 C-0.6693457 0.97522949 -0.33966797 0.49489258 0 0 Z " fill="#4C8739" transform="translate(345,33)"/>
  <path d="M0 0 C5.11435149 1.91232273 6.56117052 5.79017102 8.7890625 10.51171875 C11.79243437 19.16336739 10.82585987 28.03258608 7.30078125 36.37890625 C2.78497688 45.47831985 -3.3601269 52.98196743 -9.86010742 60.7121582 C-13.89613514 65.54594856 -17.44456065 70.38307423 -20.66796875 75.80078125 C-21.98918733 77.98214799 -23.43778869 79.98617598 -25 82 C-31.2700886 63.32775501 -39.08837525 38.38031873 -30.3203125 19.25 C-25.77901231 11.51097955 -19.93319179 3.90821792 -10.87109375 1.4140625 C-8.9375 1.125 -8.9375 1.125 -6 1 C-6.825 1.99 -7.65 2.98 -8.5 4 C-19.18324382 18.38812173 -23.90257116 34.04886246 -23 52 C-22.87044922 50.61941406 -22.87044922 50.61941406 -22.73828125 49.2109375 C-20.65211463 30.41629881 -13.51475247 13.51475247 0 0 Z " fill="#A7D71F" transform="translate(119,215)"/>
  <path d="M0 0 C17.82996937 -1.01993469 36.44307587 3.78001237 50.68359375 14.7734375 C54.38955576 18.33566068 56.76369153 22.40788567 59 27 C59.495 27.99 59.495 27.99 60 29 C60.07116382 31.37402501 60.08409085 33.75000677 60.0625 36.125 C60.05347656 37.40632813 60.04445313 38.68765625 60.03515625 40.0078125 C60.02355469 40.99523437 60.01195312 41.98265625 60 43 C57.82393778 40.15086148 55.80836736 37.22720832 53.8125 34.25 C46.69270756 24.17593684 38.73882939 18.67106721 28 13 C30.52098762 15.02587474 33.04862183 17.03735668 35.61328125 19.0078125 C45.41739578 26.69787049 52.94990531 35.50338293 58 47 C58 47.99 58 48.98 58 50 C51.38625244 52.35155469 44.1918697 53.62370262 37.46875 51.01953125 C22.71623827 43.0285874 16.07673812 28.70383643 8.51757812 14.40332031 C5.8848282 9.42552634 3.25694925 4.59758211 0 0 Z " fill="#4C873A" transform="translate(315,304)"/>
  <path d="M0 0 C11.37389098 8.40678899 20.15828804 22.4791696 24 36 C24.83448744 43.98472721 25.04222839 51.32424407 20.51171875 58.19140625 C18.24649488 60.90148029 15.86513821 62.93443524 13 65 C13.33 63.88625 13.66 62.7725 14 61.625 C16.85393831 48.39689178 15.51953396 36.26125044 10 24 C10.2165625 24.74121094 10.433125 25.48242188 10.65625 26.24609375 C14.17542705 39.55705511 15.35549449 55.28901101 9 68 C3.62881144 66.48935322 -0.41489523 63.16890054 -4 59 C-10.70725841 46.94935467 -7.89050356 34.99277969 -4.5625 22.3125 C-1.66918508 11.26901945 -1.66918508 11.26901945 0 0 Z " fill="#83CD2D" transform="translate(110,63)"/>
  <path d="M0 0 C0.33 0 0.66 0 1 0 C1.65531161 13.32466947 -2.84864018 28.89387996 -11.39453125 39.28515625 C-16.33615479 44.56343541 -20.81183976 48.75450409 -28.33203125 49.1953125 C-30.05486328 49.16050781 -30.05486328 49.16050781 -31.8125 49.125 C-32.97394531 49.10695313 -34.13539063 49.08890625 -35.33203125 49.0703125 C-36.65267578 49.03550781 -36.65267578 49.03550781 -38 49 C-35.02218206 46.67772044 -31.92993448 44.74328489 -28.6875 42.8125 C-20.24672041 37.45131243 -15.44443897 30.84791537 -11 22 C-11.47308594 22.6290625 -11.94617188 23.258125 -12.43359375 23.90625 C-20.83405721 34.7793645 -29.43055329 41.65840246 -42 47 C-42.66 47 -43.32 47 -44 47 C-46.32934028 42.34131945 -45.66986305 35.65229558 -44.421875 30.7109375 C-38.9042705 18.12076723 -24.52634701 12.71511625 -13 7 C-11.71204127 6.35586512 -10.42426133 5.71137255 -9.13671875 5.06640625 C-7.11329829 4.05590765 -5.08654884 3.05201072 -3.0546875 2.05859375 C-1.06286739 1.16444484 -1.06286739 1.16444484 0 0 Z " fill="#82CD2C" transform="translate(425,260)"/>
  <path d="M0 0 C1.02480469 0.76183594 1.02480469 0.76183594 2.0703125 1.5390625 C2.0703125 1.8690625 2.0703125 2.1990625 2.0703125 2.5390625 C1.43867188 2.60222656 0.80703125 2.66539062 0.15625 2.73046875 C-13.16868565 4.55448732 -23.61002942 11.06908735 -32.9296875 20.5390625 C-32.1975 19.93964844 -31.4653125 19.34023438 -30.7109375 18.72265625 C-19.52602305 9.94124167 -7.30545686 4.37345958 7.0703125 5.5390625 C6.63884437 13.59313419 3.97418073 18.4227161 -1.4921875 24.2890625 C-9.58677377 30.4277982 -21.12633951 31.44898587 -30.8671875 32.7265625 C-33.23059033 33.05250502 -35.59387656 33.37929447 -37.95703125 33.70703125 C-38.98562256 33.84391357 -40.01421387 33.9807959 -41.07397461 34.12182617 C-43.71683479 34.50796348 -46.31667077 34.98862217 -48.9296875 35.5390625 C-42.1717214 21.05257133 -34.66799749 8.27682563 -20.7421875 -0.4609375 C-14.15085388 -2.18981189 -6.24190169 -3.11262831 0 0 Z " fill="#5DB438" transform="translate(166.9296875,312.4609375)"/>
  <path d="M0 0 C6.13476449 1.92806884 10.28901584 6.21375053 13.26953125 11.8828125 C16.43690265 21.06310822 13.03440636 31.09077023 10.53759766 40.05273438 C9.17377499 44.99272055 7.85480181 49.88211403 7.375 55 C7.30023438 55.763125 7.22546875 56.52625 7.1484375 57.3125 C7.07496094 58.1478125 7.07496094 58.1478125 7 59 C-3.25335975 49.38747523 -13.96134508 35.42677521 -14.4375 20.75 C-14.30457583 15.13870122 -12.06868759 10.61961889 -9 6 C-6.1875 3.375 -6.1875 3.375 -4 2 C-4.23976562 3.19496094 -4.23976562 3.19496094 -4.484375 4.4140625 C-5.10920262 8.75945456 -5.2224269 12.99087771 -5.25 17.375 C-5.270625 18.18710938 -5.29125 18.99921875 -5.3125 19.8359375 C-5.3492313 25.56601977 -4.29479605 29.74612483 -2 35 C-2.495 33.515 -2.495 33.515 -3 32 C-5.45121836 22.08931857 -5.10636961 10.38294817 -1 1 C-0.67 0.67 -0.34 0.34 0 0 Z " fill="#60B63C" transform="translate(227,47)"/>
  <path d="M0 0 C4.8650568 2.09987494 7.05003276 5.12893559 9 10 C11.10342387 23.08797075 5.0681819 32.36012862 -1.9387207 42.76049805 C-5.03160331 47.36354575 -7.61378891 51.99120785 -10 57 C-10.66 57 -11.32 57 -12 57 C-18.11236761 43.83342198 -22.8218724 30.09118742 -19.3828125 15.35546875 C-17.1448815 9.54278955 -13.18166179 5.40046555 -8 2 C-5.75 1.3125 -5.75 1.3125 -4 1 C-4.27714844 1.5465625 -4.55429687 2.093125 -4.83984375 2.65625 C-6.12474342 5.2520069 -7.35172996 7.86883407 -8.5625 10.5 C-9.21412109 11.90765625 -9.21412109 11.90765625 -9.87890625 13.34375 C-11.46373942 17.09875543 -12.12674353 20.25590572 -12.09765625 24.328125 C-12.09443359 25.12734375 -12.09121094 25.9265625 -12.08789062 26.75 C-12.07951172 27.575 -12.07113281 28.4 -12.0625 29.25 C-12.05798828 30.09046875 -12.05347656 30.9309375 -12.04882812 31.796875 C-12.03707961 33.86461401 -12.01914522 35.93231624 -12 38 C-11.97421875 37.14019531 -11.9484375 36.28039062 -11.921875 35.39453125 C-11.26282813 21.65939543 -8.00268347 11.21724453 0 0 Z " fill="#82CD2C" transform="translate(407,193)"/>
  <path d="M0 0 C5.27434536 -0.31646072 8.55892743 0.07078192 13 3 C22.68112885 11.69128775 25.04569154 25.88435116 28 38 C17.30346667 37.51379394 8.64096009 31.21776474 0.9609375 24.24609375 C-2.64124442 20.12008857 -3.25465677 16.56825607 -3.125 11.1875 C-3.10695312 10.21167969 -3.08890625 9.23585938 -3.0703125 8.23046875 C-3.04710937 7.49441406 -3.02390625 6.75835937 -3 6 C-2.34 6 -1.68 6 -1 6 C-0.81566406 6.60585937 -0.63132813 7.21171875 -0.44140625 7.8359375 C2.17576335 15.39664967 6.39831368 20.37437485 12 26 C11.39285156 25.25363281 10.78570312 24.50726563 10.16015625 23.73828125 C4.87977379 17.0447042 -0.83647063 8.92235338 0 0 Z " fill="#4F893D" transform="translate(182,102)"/>
  <path d="M0 0 C11.34507528 -0.48012074 22.01631535 0.3203986 31 8 C33.69300127 11.24833769 34.93994803 14.17428536 35.25 18.4375 C35.1675 19.283125 35.085 20.12875 35 21 C34.484375 20.29875 33.96875 19.5975 33.4375 18.875 C29.91636647 14.72186815 26.23635464 10.74545155 21 9 C21.60328125 9.50789063 22.2065625 10.01578125 22.828125 10.5390625 C27.28615311 14.37871897 31.16005093 17.81400605 34 23 C34 23.66 34 24.32 34 25 C29.94681876 27.02659062 25.3879055 26.6805731 21 26 C11.83932123 21.44459894 4.96897266 8.52283336 0 0 Z " fill="#4F893D" transform="translate(358,95)"/>
  <path d="M0 0 C4.26672384 0.47408043 6.2455048 2.88307122 9 6 C13.24991527 13.17447981 10.66761419 21.88358735 9 29.5625 C8.71382812 30.93245117 8.71382812 30.93245117 8.421875 32.33007812 C7.95588071 34.55520087 7.48183025 36.77826276 7 39 C0.070695 33.34654805 -6.07107485 27.06594822 -8 18 C-8.61512903 11.54114523 -7.69708731 8.32815524 -4 3 C-3.34 2.67 -2.68 2.34 -2 2 C-2.03480469 3.64548828 -2.03480469 3.64548828 -2.0703125 5.32421875 C-2.08907921 6.778639 -2.10727844 8.23306664 -2.125 9.6875 C-2.14175781 10.40873047 -2.15851563 11.12996094 -2.17578125 11.87304688 C-2.21391569 16.04876781 -1.8789919 19.2494138 0 23 C-0.16242188 22.50628906 -0.32484375 22.01257813 -0.4921875 21.50390625 C-1.20527611 17.98783086 -1.14428543 14.5085185 -1.125 10.9375 C-1.12886719 10.21755859 -1.13273438 9.49761719 -1.13671875 8.75585938 C-1.13080799 5.57291361 -1.01350713 3.04052138 0 0 Z " fill="#60B63C" transform="translate(199,336)"/>
  <path d="M0 0 C0 0.66 0 1.32 0 2 C-1.8984375 3.40234375 -1.8984375 3.40234375 -4.375 4.9375 C-7.48210246 6.86587629 -8.93148715 7.89723073 -11 11 C-10.56429688 10.60167969 -10.12859375 10.20335937 -9.6796875 9.79296875 C-0.91970803 2 -0.91970803 2 5 2 C5.70994499 8.74447736 5.70994499 8.74447736 3.97607422 11.81079102 C-0.13623989 16.70926205 -4.36003354 19.02851336 -10.25 21.375 C-11.47203125 21.88740234 -11.47203125 21.88740234 -12.71875 22.41015625 C-14.21415456 23.0365426 -15.71284184 23.65519482 -17.21582031 24.26318359 C-18.49864059 24.79295256 -19.75861915 25.37930958 -21 26 C-20.61418351 18.02645926 -18.79585194 11.0325825 -13.18359375 5.0703125 C-8.6576832 1.12077052 -6.11772817 -0.13299409 0 0 Z " fill="#AAD826" transform="translate(426,124)"/>
  <path d="M0 0 C2 1 2 1 2.60546875 2.640625 C3.88356235 10.28387781 4.32231072 18.69614129 0.21484375 25.5078125 C-1.58416067 27.71752211 -3.36089584 28.95824836 -6 30 C-6.66 29.67 -7.32 29.34 -8 29 C-7.6390625 28.44570312 -7.278125 27.89140625 -6.90625 27.3203125 C-6.21015625 26.23363281 -6.21015625 26.23363281 -5.5 25.125 C-5.0359375 24.40570313 -4.571875 23.68640625 -4.09375 22.9453125 C-2.83663499 21.08139534 -2.83663499 21.08139534 -3 19 C-3.5775 20.0725 -4.155 21.145 -4.75 22.25 C-6.49297533 25.29711644 -8.27586798 27.72988998 -11 30 C-11.66 30 -12.32 30 -13 30 C-15.37620737 26.28717598 -15.56893394 23.3381213 -15 19 C-12.02734672 12.92354698 -7.51446259 8.22792187 -2.63671875 3.62890625 C-0.90796122 2.08133614 -0.90796122 2.08133614 0 0 Z " fill="#548C42" transform="translate(375,154)"/>
  <path d="M0 0 C0.53625 0.2475 1.0725 0.495 1.625 0.75 C0.12760417 1.921875 -1.36979167 3.09375 -2.8671875 4.265625 C-4.571549 5.94349383 -5.41688267 7.57330626 -6.375 9.75 C-5.91609375 9.19570312 -5.4571875 8.64140625 -4.984375 8.0703125 C-4.37078125 7.34585938 -3.7571875 6.62140625 -3.125 5.875 C-2.52171875 5.15570313 -1.9184375 4.43640625 -1.296875 3.6953125 C0.59587634 1.77947882 2.16157727 0.78550955 4.625 -0.25 C6.2360832 2.9721664 6.07734922 6.25576615 5.625 9.75 C1.90368998 17.34767463 -5.46317612 22.24057645 -12.375 26.75 C-13.13100217 9.25694988 -13.13100217 9.25694988 -8.375 3.75 C-3.44042056 -0.36214953 -3.44042056 -0.36214953 0 0 Z " fill="#518A3E" transform="translate(158.375,166.25)"/>
  <path d="M0 0 C2 1 2 1 3.125 3.875 C4.53903036 9.5079406 5.73837462 16.07407295 2.65625 21.26171875 C1.18549369 22.97181984 -0.3012114 24.5186159 -2 26 C-2.66 25.67 -3.32 25.34 -4 25 C-3.505 24.195625 -3.01 23.39125 -2.5 22.5625 C-0.91580347 20.35103815 -0.91580347 20.35103815 -1 19 C-2.32 21.31 -3.64 23.62 -5 26 C-5.99 26 -6.98 26 -8 26 C-10.14653544 22.5118799 -10.60163143 20.06101215 -10 16 C-8.24500407 12.50140421 -6.16210136 9.25897229 -4 6 C-3.57460937 5.34773437 -3.14921875 4.69546875 -2.7109375 4.0234375 C-1.82128994 2.6729653 -0.91319148 1.33466447 0 0 Z " fill="#87CE34" transform="translate(106,138)"/>
  <path d="M0 0 C-2.6904462 6.50191166 -5.65608316 10.6816435 -12 14 C-15.375 14.5 -15.375 14.5 -18 14 C-18.66 13.34 -19.32 12.68 -20 12 C-18.02 11.34 -16.04 10.68 -14 10 C-16.64 10.33 -19.28 10.66 -22 11 C-21.82089375 7.05966251 -21.46957994 5.44549891 -18.5625 2.6875 C-12.58816869 -0.14244641 -6.51883504 -0.04648011 0 0 Z " fill="#88CF36" transform="translate(289,77)"/>
  <path d="M0 0 C5.47233399 2.414265 8.3460219 6.8247427 11 12 C11.5625 15.375 11.5625 15.375 11 18 C9.5 19.875 9.5 19.875 8 21 C7.67 19.02 7.34 17.04 7 15 C7 17.64 7 20.28 7 23 C3.87525593 22.74664237 2.39548758 22.40912508 0.1875 20.125 C-2.21775581 13.79537944 -1.41220725 6.53145854 0 0 Z " fill="#AAD826" transform="translate(163,64)"/>
  <path d="M0 0 C7.41646539 1.07658369 12.94446258 6.1548138 17.875 11.5625 C14.3017532 12.75358227 11.26663059 12.84129922 7.5 12.9375 C5.53933594 13.01097656 5.53933594 13.01097656 3.5390625 13.0859375 C-0.93266463 12.44711934 -2.31830328 10.9977234 -5.125 7.5625 C-4.795 6.9025 -4.465 6.2425 -4.125 5.5625 C-0.66 7.5425 -0.66 7.5425 2.875 9.5625 C1.3817314 8.0692314 -0.39465157 7.10985855 -2.1875 6 C-2.92097656 5.54496094 -3.65445313 5.08992188 -4.41015625 4.62109375 C-5.25900391 4.09708984 -5.25900391 4.09708984 -6.125 3.5625 C-3.96332644 1.13547131 -3.35195823 0.60335248 0 0 Z " fill="#85CE31" transform="translate(143.125,279.4375)"/>
  <path d="M0 0 C1 3 1 3 0.07421875 5.19921875 C-0.38339844 6.02035156 -0.84101563 6.84148437 -1.3125 7.6875 C-5.3084283 14.86643135 -6.28976803 21.94046478 -6.625 30 C-6.66367187 30.77472656 -6.70234375 31.54945313 -6.7421875 32.34765625 C-6.83521357 34.23143415 -6.91863175 36.11568256 -7 38 C-9.55687534 34.16468699 -9.38362965 30.95244347 -9.375 26.5 C-9.37411377 25.69280518 -9.37322754 24.88561035 -9.37231445 24.05395508 C-9.200627 15.34147069 -6.77861731 8.28707784 -2 1 C-1.34 0.67 -0.68 0.34 0 0 Z " fill="#E5F4D4" transform="translate(403,196)"/>
  <path d="M0 0 C0.33 0.66 0.66 1.32 1 2 C0.23816406 2.29132813 -0.52367187 2.58265625 -1.30859375 2.8828125 C-10.24198672 6.42940297 -17.63822766 10.8256103 -25 17 C-21.47632731 8.78418284 -12.89731001 4.05479252 -5.3828125 -0.06640625 C-3 -1 -3 -1 0 0 Z " fill="#F0F8EC" transform="translate(158,318)"/>
  <path d="M0 0 C0.99 0.33 1.98 0.66 3 1 C3.921875 2.96875 3.921875 2.96875 4.75 5.5 C6.57689493 10.4354487 9.06526174 14.06104633 12.4140625 18.08984375 C14 20 14 20 16 23 C9.7562776 20.36003684 4.7314487 14.25442316 2 8.125 C1 5 1 5 1 2 C0.34 1.67 -0.32 1.34 -1 1 C-0.67 0.67 -0.34 0.34 0 0 Z " fill="#E2ECDF" transform="translate(180,106)"/>
  <path d="M0 0 C2.375 0.25 2.375 0.25 5 1 C7.40449773 4.09149708 7.40478496 7.19502136 7 11 C6.01 11.99 5.02 12.98 4 14 C3.67 10.7 3.34 7.4 3 4 C2.34 4 1.68 4 1 4 C0.67 2.68 0.34 1.36 0 0 Z " fill="#B3DC3D" transform="translate(167,71)"/>
  <path d="M0 0 C6.93550272 1.03788333 12.60395147 5.02728224 17.0625 10.375 C17.701875 11.24125 18.34125 12.1075 19 13 C18.34 13.66 17.68 14.32 17 15 C16.52691406 14.40832031 16.05382812 13.81664063 15.56640625 13.20703125 C10.92784131 7.66426261 6.56866403 4.02584292 0 1 C0 0.67 0 0.34 0 0 Z " fill="#E1EBDE" transform="translate(373,101)"/>
  <path d="M0 0 C0.33 0 0.66 0 1 0 C1.28307925 7.24997422 0.50974035 13.90961228 -1 21 C-1.99 20.34 -2.98 19.68 -4 19 C-2.02 9.595 -2.02 9.595 0 0 Z " fill="#CADCC5" transform="translate(341,58)"/>
  <path d="M0 0 C1.01299606 2.65602626 1.07672553 3.78395707 0.109375 6.5078125 C-0.33921875 7.37148437 -0.7878125 8.23515625 -1.25 9.125 C-1.68828125 9.99382812 -2.1265625 10.86265625 -2.578125 11.7578125 C-4 14 -4 14 -7 16 C-7 13 -7 13 -5.1875 10.8125 C-2.48075213 7.33239559 -1.41122518 4.16311429 0 0 Z " fill="#D4E2CF" transform="translate(373,168)"/>
  <path d="M0 0 C4.75481646 0.57634139 7.97048212 2.55068521 12 5 C12 5.66 12 6.32 12 7 C8.80862651 6.36747553 6.48762632 5.24396936 3.75 3.5 C3.04359375 3.0565625 2.3371875 2.613125 1.609375 2.15625 C1.07828125 1.7746875 0.5471875 1.393125 0 1 C0 0.67 0 0.34 0 0 Z " fill="#E3ECE0" transform="translate(340,316)"/>
  <path d="M0 0 C1 3 1 3 0.00390625 5.04296875 C-0.47175781 5.75066406 -0.94742187 6.45835937 -1.4375 7.1875 C-1.91058594 7.90292969 -2.38367188 8.61835938 -2.87109375 9.35546875 C-3.24363281 9.89816406 -3.61617188 10.44085938 -4 11 C-4.66 10.34 -5.32 9.68 -6 9 C-4.02 6.03 -2.04 3.06 0 0 Z " fill="#E8F5D8" transform="translate(414,280)"/>
  <path d="M0 0 C-1.16290805 3.48872415 -2.13967609 4.09976864 -5.0625 6.1875 C-5.79597656 6.71730469 -6.52945313 7.24710937 -7.28515625 7.79296875 C-7.85105469 8.19128906 -8.41695312 8.58960938 -9 9 C-7.26653013 5.24414862 -4.57230154 0 0 0 Z " fill="#CDE8C2" transform="translate(142,326)"/>
  <path d="M0 0 C0.93065133 2.60582371 1.14917407 3.64198224 0.0625 6.25 C-0.4634375 7.11625 -0.4634375 7.11625 -1 8 C-1.66 8 -2.32 8 -3 8 C-2.25 2.25 -2.25 2.25 0 0 Z " fill="#F5FAF3" transform="translate(224,50)"/>
</svg>