<?xml version="1.0" encoding="UTF-8" standalone="yes"?>
<svg version="1.2" width="300.000000pt" height="300.000000pt" viewBox="0 0 300.000000 300.000000" preserveAspectRatio="xMidYMid meet" baseProfile="tiny-ps" xmlns="http://www.w3.org/2000/svg">
  <title>bimi-svg-tiny-12-ps</title>
  <g transform="translate(0.000000,300.000000) scale(0.100000,-0.100000)" fill="#000000" stroke="none">
    <path d="M857 1812 c-22 -24 -23 -88 -1 -96 23 -9 74 25 81 53 12 50 -46 81&#xA;-80 43z"/>
    <path d="M984 1751 c-38 -17 -124 -96 -124 -113 0 -4 -14 -23 -30 -42 -35 -39&#xA;-74 -52 -113 -37 -36 14 -34 -2 3 -29 51 -37 150 -21 159 25 3 17 1 18 -13 6&#xA;-38 -32 -28 0 21 67 30 41 57 72 59 70 2 -3 -8 -35 -22 -71 -34 -88 -22 -146&#xA;22 -103 18 18 18 26 0 26 -8 0 -18 5 -21 10 -11 18 27 120 51 139 13 10 21 21&#xA;18 24 -3 3 3 3 15 0 20 -5 20 -6 -8 -39 -48 -54 -55 -131 -14 -149 33 -14 35&#xA;-30 7 -58 -21 -21 -22 -26 -8 -31 8 -3 21 -6 28 -6 7 0 32 -18 55 -40 47 -45&#xA;137 -100 164 -100 9 0 17 -4 17 -10 0 -25 -97 5 -172 53 -95 61 -135 78 -165&#xA;71 -24 -5 -23 -2 12 20 22 14 35 26 28 26 -6 0 -14 -4 -17 -9 -3 -4 -27 -14&#xA;-53 -21 -81 -20 -106 -32 -91 -41 10 -7 8 -9 -6 -9 -10 0 -34 -9 -52 -21 l-34&#xA;-21 10 28 c6 15 8 30 4 33 -12 12 -45 -44 -65 -113 -31 -106 -31 -106 -21&#xA;-106 6 0 13 10 16 23 11 42 77 118 134 154 48 31 66 37 113 38 50 0 63 -5 126&#xA;-46 170 -114 245 -124 327 -44 43 42 48 64 7 34 -25 -18 -38 -21 -80 -16 -28&#xA;3 -70 17 -93 31 -57 34 -158 114 -158 126 0 11 184 100 265 128 68 23 199 44&#xA;223 35 13 -4 14 -3 6 6 -24 26 -197 18 -313 -15 -17 -5 -22 -4 -17 4 10 16&#xA;-28 86 -58 105 -40 27 -96 30 -142 8z m156 -80 c41 -29 36 -46 -17 -66 -26 -9&#xA;-67 -28 -90 -42 l-43 -24 0 42 c0 98 75 143 150 90z"/>
    <path d="M1646 1601 c-6 -8 -1 -41 19 -128 10 -42 31 -25 44 35 7 31 15 65 17&#xA;75 3 10 0 17 -9 17 -10 0 -17 -16 -22 -47 -6 -38 -9 -44 -16 -28 -4 11 -8 32&#xA;-8 47 -1 28 -16 45 -25 29z"/>
    <path d="M1907 1603 c-2 -5 0 -41 6 -80 11 -82 31 -98 42 -33 8 45 25 45 25&#xA;-1 0 -25 23 -51 34 -38 2 2 6 37 10 77 5 59 4 72 -8 72 -10 0 -16 -14 -18 -42&#xA;l-4 -43 -8 43 c-10 51 -30 50 -34 -1 -4 -46 -22 -39 -22 8 0 32 -14 54 -23 38z"/>
    <path d="M2159 1606 c-2 -2 -3 -38 -1 -80 l4 -76 34 0 c24 0 34 5 34 16 0 10&#xA;-7 14 -22 12 -22 -3 -23 1 -26 65 -3 59 -9 77 -23 63z"/>
    <path d="M2255 1600 c-3 -5 -5 -41 -3 -80 l2 -70 38 0 c28 0 38 4 38 16 0 12&#xA;-7 15 -25 12 -25 -5 -25 -4 -25 63 0 63 -9 85 -25 59z"/>
    <path d="M1305 1588 c-12 -38 -26 -131 -20 -136 4 -4 12 1 19 11 16 21 32 22&#xA;40 2 3 -8 11 -15 17 -15 12 0 8 37 -12 113 -10 36 -35 51 -44 25z"/>
    <path d="M1396 1585 c-3 -9 -3 -43 1 -76 6 -60 6 -60 37 -57 23 2 32 9 34 26&#xA;4 25 -13 30 -22 6 -11 -29 -26 -3 -26 47 0 47 14 66 26 34 9 -24 24 -17 24 10&#xA;0 22 -4 25 -34 25 -21 0 -36 -6 -40 -15z"/>
    <path d="M1490 1590 c0 -5 7 -10 15 -10 12 0 15 -14 15 -65 0 -53 3 -65 16&#xA;-65 13 0 15 9 9 65 -6 56 -5 65 9 65 9 0 16 5 16 10 0 6 -18 10 -40 10 -22 0&#xA;-40 -4 -40 -10z"/>
    <path d="M1590 1525 c0 -60 3 -75 15 -75 12 0 15 15 15 75 0 60 -3 75 -15 75&#xA;-12 0 -15 -15 -15 -75z"/>
    <path d="M1750 1525 l0 -75 40 0 c30 0 40 4 40 16 0 11 -8 15 -27 12 -20 -2&#xA;-29 2 -31 15 -3 13 3 17 22 17 16 0 26 6 26 15 0 9 -10 15 -26 15 -36 0 -29&#xA;34 9 38 42 5 32 22 -13 22 l-40 0 0 -75z"/>
    <path d="M2055 1525 l0 -75 37 0 c28 0 38 4 38 16 0 10 -7 14 -22 12 -15 -2&#xA;-24 3 -26 15 -2 12 3 17 17 17 12 0 21 6 21 15 0 8 -9 15 -20 15 -13 0 -20 7&#xA;-20 20 0 15 7 20 25 20 14 0 25 5 25 10 0 6 -17 10 -37 10 l-38 0 0 -75z"/>
    <path d="M620 1525 c0 -3 6 -20 14 -39 16 -39 61 -76 90 -75 17 1 17 2 4 6&#xA;-37 9 -15 21 77 42 52 13 98 27 101 33 5 7 -1 9 -17 5 -137 -34 -179 -33 -228&#xA;8 -28 24 -41 30 -41 20z"/>
    <path d="M1271 1393 c-1 -14 5 -23 14 -23 8 0 15 6 15 13 0 7 3 8 8 2 12 -17&#xA;32 -16 32 3 0 23 -50 26 -51 3 0 -11 -3 -10 -9 4 -8 19 -9 19 -9 -2z"/>
    <path d="M1380 1390 c0 -14 7 -18 28 -18 19 1 28 6 28 18 0 12 -9 17 -28 18&#xA;-21 0 -28 -4 -28 -18z"/>
    <path d="M1450 1391 c0 -10 10 -17 25 -19 20 -1 25 3 24 21 0 21 -1 21 -9 2&#xA;-6 -15 -9 -16 -9 -4 -1 21 -31 20 -31 0z"/>
    <path d="M1510 1395 c0 -16 7 -20 36 -22 28 -2 35 1 32 15 -4 19 -48 26 -48 8&#xA;0 -6 -5 -4 -10 4 -8 12 -10 12 -10 -5z"/>
    <path d="M1600 1390 c0 -16 6 -20 30 -18 20 1 30 8 30 18 0 9 -7 17 -15 17 -8&#xA;0 -15 -7 -15 -14 0 -8 -5 -11 -10 -8 -6 4 -8 11 -5 16 4 5 1 9 -4 9 -6 0 -11&#xA;-9 -11 -20z"/>
    <path d="M1670 1392 c0 -15 8 -18 50 -18 40 0 50 3 50 16 0 12 -9 17 -30 17&#xA;-16 0 -30 -4 -30 -9 0 -4 -5 -8 -11 -8 -5 0 -7 5 -4 10 3 6 -1 10 -9 10 -9 0&#xA;-16 -8 -16 -18z"/>
    <path d="M1880 1390 c0 -9 9 -16 20 -17 13 -1 20 4 20 15 0 11 -8 18 -20 18&#xA;-12 0 -20 -7 -20 -16z"/>
    <path d="M1930 1392 c0 -16 9 -19 73 -19 39 0 66 2 60 4 -7 3 -13 9 -13 14 0&#xA;6 5 7 10 4 6 -3 10 -1 10 4 0 6 -7 11 -15 11 -8 0 -15 -8 -15 -17 -1 -17 -1&#xA;-17 -11 0 -10 18 -11 18 -26 0 -8 -10 -12 -13 -9 -6 9 18 -11 25 -35 12 -15&#xA;-8 -19 -8 -15 0 4 6 2 11 -3 11 -6 0 -11 -8 -11 -18z"/>
    <path d="M2080 1392 c0 -15 8 -19 40 -20 34 -2 40 1 40 18 0 11 -5 20 -11 20&#xA;-5 0 -8 -4 -4 -9 3 -6 -7 -6 -27 0 -18 5 -34 9 -35 9 -2 0 -3 -8 -3 -18z"/>
    <path d="M2180 1400 c0 -3 5 -12 10 -20 9 -13 11 -13 20 0 9 13 10 13 11 0 0&#xA;-10 3 -8 9 5 9 20 9 20 9 0 1 -17 3 -17 11 -5 17 26 11 31 -30 28 -22 -2 -40&#xA;-5 -40 -8z"/>
    <path d="M2277 1403 c-17 -16 -4 -29 33 -31 32 -2 40 1 41 15 0 16 1 16 9 -2&#xA;9 -20 9 -20 10 0 1 19 1 19 15 2 13 -18 14 -18 24 1 9 17 6 19 -35 20 -36 2&#xA;-44 -1 -45 -15 0 -16 -2 -15 -9 2 -9 20 -9 20 -10 0 -1 -19 -2 -19 -14 -3 -7&#xA;10 -16 15 -19 11z"/>
  </g>
</svg>