<svg xmlns="http://www.w3.org/2000/svg" xmlns:xlink="http://www.w3.org/1999/xlink" width="500" zoomAndPan="magnify" viewBox="0 0 375 374.999991" height="500" preserveAspectRatio="xMidYMid meet" version="1.0"><defs><clipPath id="d5b49c6ddc"><path d="M 228 24.308594 L 264 24.308594 L 264 85 L 228 85 Z M 228 24.308594 " clip-rule="nonzero"/></clipPath></defs><rect x="-37.5" width="450" fill="#ffffff" y="-37.499999" height="449.999989" fill-opacity="1"/><rect x="-37.5" width="450" fill="#ffffff" y="-37.499999" height="449.999989" fill-opacity="1"/><path fill="#5ab334" d="M 149.761719 251.863281 C 149.761719 251.863281 145.292969 262.222656 151.46875 273.988281 C 151.46875 273.988281 144 264.847656 147.898438 253.140625 C 134.375 264.222656 154.613281 281.898438 154.613281 281.898438 C 153.804688 273.191406 163.886719 257.617188 149.761719 251.863281 " fill-opacity="1" fill-rule="nonzero"/><path fill="#5ab334" d="M 98.550781 252.414062 C 98.550781 252.414062 108.152344 236.425781 127.617188 235.984375 C 103.941406 221.777344 88.472656 261.304688 88.472656 261.304688 C 100.976562 255.460938 129.496094 262.148438 130.515625 238.078125 C 130.515625 238.078125 112.738281 236.953125 98.550781 252.414062 " fill-opacity="1" fill-rule="nonzero"/><path fill="#a6d71c" d="M 90.070312 160.804688 C 90.070312 160.804688 71.75 176.371094 72.445312 204.6875 C 72.445312 204.6875 66.804688 180.164062 85.300781 161.488281 C 49.003906 169.878906 70.984375 222.769531 70.984375 222.769531 C 77.660156 205.375 111.617188 185.144531 90.070312 160.804688 " fill-opacity="1" fill-rule="nonzero"/><path fill="#80cc28" d="M 115.761719 217.144531 C 115.761719 217.144531 108.445312 218.660156 103.015625 213.046875 C 105.28125 223.890625 121.121094 217.691406 121.121094 217.691406 C 116 215.59375 110.207031 205.375 102.84375 211.628906 C 102.84375 211.628906 107.351562 217.167969 115.761719 217.144531 " fill-opacity="1" fill-rule="nonzero"/><path fill="#498536" d="M 235.558594 227.535156 C 247.605469 239.273438 252.289062 274.671875 280.148438 265.449219 C 280.148438 265.449219 273.761719 244.695312 250.03125 235.1875 C 250.03125 235.1875 272.378906 239.242188 281.28125 261.246094 C 287.25 228.125 235.558594 227.535156 235.558594 227.535156 " fill-opacity="1" fill-rule="nonzero"/><path fill="#a6d71c" d="M 322.882812 94.382812 C 322.882812 94.382812 313.109375 96.285156 307.613281 106.652344 C 307.613281 106.652344 310.550781 96.648438 321.023438 93.660156 C 306.207031 89.316406 303.414062 112.886719 303.414062 112.886719 C 309.355469 107.960938 325.730469 107.550781 322.882812 94.382812 " fill-opacity="1" fill-rule="nonzero"/><path fill="#498536" d="M 121.980469 124.605469 C 121.980469 124.605469 113.914062 128.605469 111.597656 138.957031 C 111.597656 138.957031 111.773438 129.53125 120.1875 124.421875 C 106.234375 124.179688 109.429688 145.394531 109.429688 145.394531 C 113.429688 139.679688 127.609375 135.40625 121.980469 124.605469 " fill-opacity="1" fill-rule="nonzero"/><path fill="#80cc28" d="M 79.734375 109.261719 C 79.734375 109.261719 81.804688 117.140625 76.011719 123.367188 C 87.667969 120.285156 80.027344 103.402344 80.027344 103.402344 C 78.039062 109.09375 67.261719 115.976562 74.476562 123.632812 C 74.476562 123.632812 80.246094 118.414062 79.734375 109.261719 " fill-opacity="1" fill-rule="nonzero"/><path fill="#80cc28" d="M 89.082031 98.34375 C 89.082031 98.34375 97.339844 80.984375 87.558594 60.5625 C 87.558594 60.5625 99.703125 76.597656 92.335938 96.285156 C 116.058594 78.257812 82.699219 46.898438 82.699219 46.898438 C 83.53125 61.773438 65.394531 87.664062 89.082031 98.34375 " fill-opacity="1" fill-rule="nonzero"/><path fill="#a6d71c" d="M 126.941406 65.675781 C 126.941406 65.675781 129.085938 58.988281 124.554688 52.074219 C 124.554688 52.074219 129.730469 57.285156 128.019531 64.769531 C 135.730469 57.09375 122.132812 47.359375 122.132812 47.359375 C 123.152344 52.707031 117.847656 62.960938 126.941406 65.675781 " fill-opacity="1" fill-rule="nonzero"/><path fill="#5ab334" d="M 170.363281 34.898438 C 170.363281 34.898438 163.085938 49.757812 171.308594 67.433594 C 171.308594 67.433594 161.007812 53.511719 167.539062 36.636719 C 146.949219 51.921875 175.355469 79.242188 175.355469 79.242188 C 174.785156 66.429688 190.648438 44.320312 170.363281 34.898438 " fill-opacity="1" fill-rule="nonzero"/><path fill="#498536" d="M 136.339844 76.882812 C 136.339844 76.882812 137.480469 90.160156 150.476562 98.945312 C 150.476562 98.945312 137.597656 93.609375 135.117188 79.253906 C 127.238281 98.347656 158.164062 105.417969 158.164062 105.417969 C 152.460938 96.8125 154.25 74.96875 136.339844 76.882812 " fill-opacity="1" fill-rule="nonzero"/><path fill="#80cc28" d="M 200.015625 65.785156 C 200.015625 65.785156 207.125 66.527344 213.066406 60.5625 C 213.066406 60.5625 208.957031 66.8125 201.140625 66.671875 C 210.402344 72.753906 217.253906 57.15625 217.253906 57.15625 C 212.144531 59.296875 200.816406 56.148438 200.015625 65.785156 " fill-opacity="1" fill-rule="nonzero"/><g clip-path="url(#d5b49c6ddc)"><path fill="#498536" d="M 256.128906 42.476562 C 256.128906 42.476562 259.019531 67.773438 238.308594 84.453125 C 275.753906 80.132812 259.644531 24.464844 259.644531 24.464844 C 250.964844 41.195312 214.53125 57.683594 233.4375 84.597656 C 233.4375 84.597656 253.617188 71.023438 256.128906 42.476562 " fill-opacity="1" fill-rule="nonzero"/></g><path fill="#498536" d="M 294.292969 89.785156 C 294.292969 89.785156 289.769531 78.824219 276.378906 74.851562 C 276.378906 74.851562 288.742188 75.921875 294.699219 87.445312 C 296.269531 69.125 268.121094 71.421875 268.121094 71.421875 C 275.269531 77.195312 279.605469 96.214844 294.292969 89.785156 " fill-opacity="1" fill-rule="nonzero"/><path fill="#80cc28" d="M 286.011719 230.378906 C 286.011719 230.378906 303.886719 225.867188 312.992188 206.148438 C 312.992188 206.148438 308.574219 224.9375 289.527344 231.527344 C 317.347656 238.042969 320.117188 194.199219 320.117188 194.199219 C 309.636719 203.910156 279.417969 206.328125 286.011719 230.378906 " fill-opacity="1" fill-rule="nonzero"/><path fill="#498536" d="M 272.359375 138.320312 C 272.359375 138.320312 279.996094 132.953125 280.738281 121.980469 C 280.738281 121.980469 282.042969 131.667969 274.226562 138.226562 C 288.5625 136.277344 281.945312 115.042969 281.945312 115.042969 C 278.746094 121.53125 264.894531 128.140625 272.359375 138.320312 " fill-opacity="1" fill-rule="nonzero"/><path fill="#80cc28" d="M 297.042969 188.671875 C 300.527344 176.152344 322.753906 159.859375 306.183594 144.398438 C 306.183594 144.398438 294.503906 156.414062 296.859375 176.023438 C 296.859375 176.023438 291.320312 159.375 302.921875 145.183594 C 278.285156 153.417969 297.042969 188.671875 297.042969 188.671875 " fill-opacity="1" fill-rule="nonzero"/><path fill="#498536" d="M 202.960938 184.015625 C 202.597656 183.578125 210.609375 178.476562 210.609375 166.480469 C 212.84375 166.363281 214.636719 163.160156 214.636719 159.199219 C 214.636719 155.6875 215.335938 152.019531 213.457031 151.320312 C 212.769531 140.632812 208.203125 133.84375 201.042969 131.074219 C 197.714844 129.785156 190.566406 129.691406 187.488281 131.089844 C 180.515625 134.257812 176.382812 140.835938 175.703125 151.511719 C 173.820312 152.207031 173.929688 155.6875 173.929688 159.199219 C 173.929688 163.160156 175.722656 166.363281 177.953125 166.480469 C 177.953125 178.476562 185.96875 183.578125 185.605469 184.015625 C 173.667969 198.445312 137.347656 173.792969 138.707031 166.390625 C 139.929688 159.746094 162.664062 137.152344 179.191406 119.515625 C 182.667969 115.804688 190.96875 104.292969 194.285156 93.863281 C 197.59375 104.292969 205.902344 115.804688 209.375 119.515625 C 225.898438 137.152344 248.636719 159.746094 249.859375 166.390625 C 251.21875 173.792969 214.898438 198.445312 202.960938 184.015625 Z M 297.910156 294.984375 C 290.339844 286.917969 274.117188 289.011719 264.28125 289.132812 C 251.429688 289.292969 232.480469 291.265625 222.886719 280.746094 C 218.527344 275.960938 217.015625 269.1875 216.878906 262.710938 C 216.722656 254.796875 223.929688 227.691406 224.6875 219.8125 C 225.066406 215.855469 263.449219 184.164062 270.449219 167.921875 C 274.730469 157.992188 233.839844 132.816406 217.824219 116.027344 C 201.964844 99.402344 198.394531 73.085938 194.285156 80.160156 C 190.175781 73.085938 186.601562 99.402344 170.742188 116.027344 C 154.726562 132.816406 113.835938 157.992188 118.113281 167.921875 C 125.117188 184.164062 163.496094 215.855469 163.878906 219.8125 C 164.636719 227.691406 171.847656 254.796875 171.683594 262.710938 C 171.554688 269.1875 170.042969 275.960938 165.675781 280.746094 C 156.085938 291.265625 137.136719 289.292969 124.285156 289.132812 C 114.449219 289.011719 98.222656 286.917969 90.65625 294.984375 C 74.113281 312.617188 106.789062 321.597656 142.425781 325.800781 C 138.304688 329.050781 134.667969 333.058594 133.125 337.742188 C 129.003906 350.246094 151.964844 331.839844 174.96875 328.441406 C 182.089844 328.789062 188.679688 328.96875 194.285156 329.027344 C 200.289062 328.96875 207.433594 328.761719 215.144531 328.363281 C 238.339844 331.53125 261.722656 350.351562 257.5625 337.742188 C 255.984375 332.953125 252.21875 328.871094 247.976562 325.578125 C 282.886719 321.28125 314.167969 312.308594 297.910156 294.984375 " fill-opacity="1" fill-rule="nonzero"/></svg>